<svg xmlns="http://www.w3.org/2000/svg" version="1.1" xmlns:xlink="http://www.w3.org/1999/xlink" width="200" height="200"><svg xmlns="http://www.w3.org/2000/svg" version="1.1" xmlns:xlink="http://www.w3.org/1999/xlink" viewBox="0 0 200 200"><rect width="200" height="200" fill="url('#gradient')"></rect><defs><linearGradient id="SvgjsLinearGradient1001" gradientTransform="rotate(0 0.5 0.5)"><stop offset="0%" stop-color="#141e32"></stop><stop offset="100%" stop-color="#141e32"></stop></linearGradient></defs><g><g fill="#cfbaaa" transform="matrix(4.487495277672837,0,0,4.487495277672837,40.47177290151063,133.20980747440512)" stroke="#cfbaaa" stroke-width="0.2"><path d="M6.46-2.97L6.46-2.97Q6.46-3.39 6.02-3.64Q5.58-3.90 4.35-4.17Q3.12-4.44 2.31-4.89Q1.51-5.33 1.09-5.97Q0.67-6.60 0.67-7.42L0.67-7.42Q0.67-8.88 1.88-9.82Q3.08-10.76 5.02-10.76L5.02-10.76Q7.11-10.76 8.38-9.81Q9.65-8.87 9.65-7.32L9.65-7.32L6.35-7.32Q6.35-8.59 5.01-8.59L5.01-8.59Q4.49-8.59 4.14-8.31Q3.79-8.02 3.79-7.59L3.79-7.59Q3.79-7.15 4.22-6.88Q4.65-6.60 5.59-6.43Q6.53-6.25 7.25-6.01L7.25-6.01Q9.63-5.19 9.63-3.07L9.63-3.07Q9.63-1.62 8.34-0.71Q7.06 0.20 5.02 0.20L5.02 0.20Q3.66 0.20 2.60-0.29Q1.53-0.78 0.94-1.62Q0.34-2.46 0.34-3.39L0.34-3.39L3.42-3.39Q3.44-2.66 3.91-2.32Q4.38-1.98 5.11-1.98L5.11-1.98Q5.78-1.98 6.12-2.26Q6.46-2.53 6.46-2.97ZM14.38-15L14.38-9.43Q15.44-10.76 17.08-10.76L17.08-10.76Q18.83-10.76 19.72-9.73Q20.61-8.69 20.63-6.67L20.63-6.67L20.63 0L17.32 0L17.32-6.59Q17.32-7.43 16.98-7.83Q16.64-8.22 15.82-8.22L15.82-8.22Q14.80-8.22 14.38-7.58L14.38-7.58L14.38 0L11.09 0L11.09-15L14.38-15ZM26.14-14.22L25.72-4.50L23.06-4.50L22.64-14.22L26.14-14.22ZM22.54-1.47L22.54-1.47Q22.54-2.20 23.06-2.66Q23.58-3.13 24.37-3.13Q25.15-3.13 25.67-2.66Q26.19-2.20 26.19-1.47Q26.19-0.75 25.67-0.29Q25.15 0.18 24.37 0.18Q23.58 0.18 23.06-0.29Q22.54-0.75 22.54-1.47Z"></path></g></g></svg><style>@media (prefers-color-scheme: light) { :root { filter: none; } }
@media (prefers-color-scheme: dark) { :root { filter: none; } }
</style></svg>