<?xml version="1.0" encoding="UTF-8"?>
<svg id="_Слой_1" data-name="Слой 1" xmlns="http://www.w3.org/2000/svg" viewBox="0 0 263.96 104.23">
  <defs>
    <style>
      .cls-1, .cls-2 {
        stroke-width: 0px;
      }

      .cls-2 {
        fill: #185080;
      }
    </style>
  </defs>
  <polygon class="cls-2" points="26.94 .02 19.04 0 19.09 29.44 27.86 42.18 27.86 16.54 34.4 26.13 34.4 62.35 9.61 25.96 0 25.95 0 78.81 16.26 102.57 24.12 102.57 24.13 72.77 15.35 60.04 15.35 86.06 8.79 76.49 8.79 40.13 35.32 78.96 43.19 78.97 43.17 23.77 26.94 .02"/>
  <path class="cls-1" d="m263.04,58.03c-.62-1.11-1.47-1.96-2.56-2.56-1.09-.6-2.22-.9-3.41-.9-1.19,0-2.32.29-3.41.88-1.09.59-1.95,1.44-2.58,2.54-.63,1.1-.94,2.26-.95,3.47,0,1.2.3,2.35.91,3.44.61,1.09,1.46,1.95,2.55,2.56,1.09.61,2.24.92,3.44.93,1.2,0,2.35-.3,3.45-.91,1.09-.61,1.95-1.46,2.56-2.55.61-1.09.92-2.24.93-3.44,0-1.21-.31-2.37-.92-3.48Zm-1.17,6.24c-.5.88-1.18,1.56-2.06,2.05-.88.49-1.8.73-2.77.73-.96,0-1.88-.25-2.76-.75-.88-.5-1.56-1.18-2.05-2.06-.49-.88-.73-1.8-.73-2.77,0-.98.26-1.91.76-2.8.51-.89,1.2-1.57,2.07-2.04.88-.47,1.79-.71,2.74-.7.95,0,1.86.24,2.74.72.88.48,1.56,1.16,2.06,2.05.5.89.75,1.83.74,2.8,0,.97-.25,1.89-.75,2.77Z"/>
  <path class="cls-1" d="m258.9,62.81c-.21-.28-.37-.47-.49-.57-.12-.1-.29-.19-.51-.28.63-.09,1.12-.32,1.47-.69.35-.37.53-.83.53-1.36,0-.39-.09-.74-.27-1.05-.18-.32-.41-.55-.68-.7-.27-.15-.66-.25-1.15-.3-.17-.01-.95-.02-2.35-.02h-1.49s-.02,7.33-.02,7.33h1.49s0-3.01,0-3.01h.39c.42,0,.76.11,1.03.32.27.21.61.71,1.03,1.52l.62,1.19h1.84s-.87-1.48-.87-1.48c-.31-.52-.48-.82-.54-.89Zm-1.27-1.9c-.21.07-.74.1-1.61.09h-.61s0-2,0-2h.61c.85,0,1.38.04,1.6.11.22.07.38.18.5.34.12.16.18.34.18.55,0,.21-.06.4-.18.56-.12.17-.29.28-.49.34Z"/>
  <path class="cls-1" d="m89.66,60.75c-1.43-.76-3.28-1.13-5.51-1.13h-.25c-6.1.04-9.17,2.77-9.17,8.24l-.04,9.8c0,.67.04,1.3.17,1.85.42,1.98,1.51,3.45,3.28,4.41,1.47.8,3.28,1.22,5.51,1.22h.25c6.31-.08,9.29-3.11,8.96-9.08h-6.81c-.08,1.64-.21,2.61-.29,2.86-.25.88-.93,1.3-1.93,1.3h-.13c-1.18-.08-1.85-.67-2.06-1.77-.08-.25-.08-.5-.08-.8v-4.2h11.56v-6.9c0-.55-.04-1.09-.17-1.64-.42-1.85-1.47-3.24-3.28-4.16Zm-3.41,8.2h-4.71v-1.6c0-2.14.8-3.24,2.4-3.24,1.22,0,1.98.63,2.27,1.94.04.17.04.33.04.5v2.4Z"/>
  <polygon class="cls-1" points="75.61 52.04 55.98 52.04 56.02 58.52 61.99 58.52 61.95 84.34 69.52 84.34 69.56 58.52 75.65 58.52 75.61 52.04"/>
  <polygon class="cls-1" points="107.32 72.27 112.66 60.24 105.8 60.24 103.7 66.97 103.57 66.97 101.55 60.24 94.74 60.24 100.17 72.27 94.49 84.34 101.51 84.34 103.7 77.4 103.78 77.4 105.97 84.34 112.82 84.34 107.32 72.27"/>
  <polygon class="cls-1" points="133.76 84.34 133.72 60.24 126.91 60.24 126.91 69.24 123.04 69.24 123 60.24 116.19 60.24 116.19 84.34 123.04 84.34 123.04 74.54 126.91 74.54 126.91 84.34 133.76 84.34"/>
  <path class="cls-1" d="m147.13,59.53c-5.97,0-8.91,2.77-8.91,8.28l-.04,9.8c0,.67.08,1.35.21,1.93.8,3.7,3.7,5.55,8.75,5.55,5.97,0,8.96-2.48,8.96-7.48v-9.8c.04-.88-.04-1.72-.21-2.48-.8-3.87-3.74-5.8-8.75-5.8Zm2.1,18.5c-.13,1.43-.8,2.1-2.06,2.1-1.18,0-1.89-.46-2.1-1.43-.04-.21-.04-.42-.04-.67v-10.72c0-1.89.71-2.82,2.1-2.82,1.09,0,1.77.59,2.02,1.72.04.29.08.67.08,1.09v10.72Z"/>
  <path class="cls-1" d="m161.56,60.24v12.57c-.04,2.65-.17,4.37-.38,5.09-.38,1.09-1.22,1.64-2.61,1.64v5.34c3.95,0,6.6-1.14,7.95-3.36.88-1.51,1.3-4.25,1.3-8.2v-7.74h3.15l.04,18.75h6.85l-.04-24.09h-16.27Z"/>
  <path class="cls-1" d="m191.28,59.53c-5.93,0-8.91,2.77-8.91,8.28l-.04,9.8c0,.67.08,1.35.21,1.93.8,3.7,3.7,5.55,8.75,5.55,5.97,0,8.96-2.48,8.96-7.48l.04-9.8c0-.88-.08-1.72-.21-2.48-.84-3.87-3.74-5.8-8.79-5.8Zm.04,20.6c-1.18,0-1.89-.46-2.1-1.43-.04-.21-.04-.42-.04-.67v-10.72c0-1.89.71-2.82,2.1-2.82,1.09,0,1.77.59,2.02,1.72.08.29.08.67.08,1.09l.04,10.72c-.17,1.43-.84,2.1-2.1,2.1Z"/>
  <polygon class="cls-1" points="204.32 84.34 211.17 84.34 211.13 65.58 218.99 65.58 218.99 60.24 204.32 60.24 204.32 84.34"/>
  <path class="cls-1" d="m94.78,48.01c1.47.84,3.27,1.22,5.5,1.22h.25c6.3-.08,9.28-3.1,8.9-9.06h-6.76c-.13,1.64-.21,2.6-.29,2.85-.29.88-.92,1.3-1.93,1.3h-.17c-1.13-.08-1.8-.67-2.06-1.76-.04-.21-.04-.5-.08-.76l.04-4.24h11.54v-6.88c0-.55-.08-1.09-.17-1.59-.42-1.89-1.51-3.27-3.27-4.2-1.43-.75-3.27-1.13-5.54-1.13h-.25c-6.09.04-9.11,2.81-9.15,8.23v9.78c0,.67.04,1.3.17,1.85.42,1.97,1.51,3.44,3.27,4.41Zm3.36-16.53c0-2.14.84-3.23,2.43-3.23,1.22,0,1.97.63,2.27,1.93,0,.17.04.34.04.5v2.39h-4.74v-1.59Z"/>
  <path class="cls-1" d="m137.41,48.01c1.47.84,3.27,1.22,5.5,1.22h.25c6.29-.08,9.27-3.1,8.9-9.06h-6.76c-.13,1.64-.21,2.6-.29,2.85-.29.88-.92,1.3-1.93,1.3h-.17c-1.13-.08-1.8-.67-2.06-1.76-.04-.21-.04-.5-.08-.76l.04-4.24h11.54v-6.88c0-.55-.08-1.09-.17-1.59-.42-1.89-1.51-3.27-3.27-4.2-1.43-.75-3.27-1.13-5.54-1.13h-.25c-6.08.04-9.1,2.81-9.15,8.22v9.78c0,.67.04,1.3.17,1.85.42,1.97,1.51,3.44,3.27,4.4Zm3.36-16.53c0-2.14.84-3.23,2.43-3.23,1.22,0,1.97.63,2.27,1.93,0,.17.04.34.04.5v2.39h-4.74v-1.59Z"/>
  <polygon class="cls-1" points="194.18 38.79 198.06 38.79 198.06 48.62 204.94 48.62 204.9 24.44 198.06 24.44 198.06 33.47 194.18 33.47 194.14 24.44 187.3 24.44 187.3 48.62 194.18 48.62 194.18 38.79"/>
  <polygon class="cls-1" points="160.94 47.94 166.37 39.74 166.37 47.94 172.34 47.94 172.34 39.81 177.5 47.94 184.78 47.94 176.38 34.76 183.33 24.72 176.5 24.72 172.34 30.94 172.34 24.72 166.37 24.72 166.37 30.96 162.2 24.72 154.95 24.72 162.43 35.59 154.03 47.94 160.94 47.94"/>
  <rect class="cls-1" x="209.61" y="24.46" width="6.84" height="24.03"/>
  <polygon class="cls-1" points="216.47 22.74 216.42 16.95 209.59 16.95 209.63 22.74 216.47 22.74"/>
  <path class="cls-1" d="m119.23,39.75h3.14c2.28,0,4.16-.72,5.61-2.13,1.46-1.43,2.19-3.24,2.19-5.39,0-1.93-.66-3.67-1.97-5.16-1.36-1.56-3.41-2.34-6.1-2.34h-8.68v23.31h5.83l-.02-8.28Zm4.74-9.14c.43.53.64,1.08.64,1.75,0,.77-.21,1.34-.65,1.77-.44.44-1.05.65-1.84.65h-3.16v-4.8h3.34c1.03,0,1.45.37,1.68.64Z"/>
  <rect class="cls-1" x="222.1" y="60.14" width="6.92" height="24.34"/>
  <polygon class="cls-1" points="229 52.44 221.97 52.44 222.02 58.39 229.05 58.39 229 52.44"/>
  <rect class="cls-1" x="234.4" y="60.14" width="6.92" height="24.34"/>
  <polygon class="cls-1" points="237.27 52.44 231.62 52.44 231.65 58.39 237.31 58.39 237.27 52.44"/>
  <polygon class="cls-1" points="238.47 52.44 238.51 58.39 244.16 58.39 244.13 52.44 238.47 52.44"/>
  <polygon class="cls-1" points="63.11 29.97 68.62 47.84 75.22 47.84 80.67 30.28 80.73 47.94 87.24 47.94 87.24 16.32 78.47 16.32 72.1 38.61 65.85 16.32 56.64 16.32 56.64 47.93 63.23 47.99 63.11 29.97"/>
  <polygon class="cls-1" points="65.91 98.59 63.2 98.59 63.2 95.89 61.82 95.89 61.82 102.74 63.2 102.74 63.2 99.75 65.91 99.75 65.91 102.74 67.3 102.74 67.3 95.89 65.91 95.89 65.91 98.59"/>
  <path class="cls-1" d="m75.81,95.89l-2.67,6.85h1.47l.57-1.56h2.74l.6,1.56h1.5l-2.74-6.85h-1.46Zm-.21,4.14l.92-2.54.94,2.54h-1.87Z"/>
  <path class="cls-1" d="m90.31,99.1c.3-.13.53-.34.7-.6.17-.27.26-.56.26-.88,0-.3-.07-.56-.21-.8-.14-.24-.32-.43-.53-.57-.21-.14-.45-.24-.71-.28-.27-.05-.67-.07-1.21-.07h-2.74v6.85h2.33c.88,0,1.44-.02,1.67-.05.37-.04.68-.15.93-.32.25-.18.45-.41.59-.71.15-.29.22-.6.22-.91,0-.39-.11-.74-.34-1.03-.22-.29-.54-.5-.96-.62Zm-3.05-2.07h.79c.65,0,1.04,0,1.18.02.23.03.4.11.52.24.12.13.17.3.17.52s-.07.4-.2.53-.32.22-.56.25c-.13.02-.47.02-1,.02h-.91v-1.58Zm2.73,4.24c-.13.15-.3.24-.5.27-.13.03-.45.04-.95.04h-1.28v-1.83h1.12c.63,0,1.04.03,1.23.1.19.07.33.17.43.31.1.14.15.32.15.52,0,.24-.06.44-.19.58Z"/>
  <path class="cls-1" d="m101.44,98.84c-.17.12-.37.22-.6.28-.23.06-.49.1-.79.1-.37,0-.66-.06-.85-.19-.19-.13-.31-.28-.35-.45-.04-.17-.06-.52-.06-1.05v-1.63h-1.38v2.31c0,.79.23,1.35.69,1.67.46.32,1.03.48,1.71.48.26,0,.53-.03.8-.1.27-.06.55-.16.83-.28v2.76h1.38v-6.85h-1.38v2.95Z"/>
  <path class="cls-1" d="m111.33,95.89l-2.67,6.85h1.47l.57-1.56h2.74l.6,1.56h1.5l-2.74-6.85h-1.46Zm-.21,4.14l.92-2.54.94,2.54h-1.87Z"/>
  <path class="cls-1" d="m121.99,99.8v1.18c0,.31-.05.5-.14.57s-.29.12-.58.12h-.31s0,1.06,0,1.06c.43.03.72.05.88.05.46,0,.8-.09,1.02-.28.22-.18.35-.44.41-.78.06-.33.08-.92.08-1.75v-2.92h2.06v5.69h1.38v-6.85h-4.8v3.91Z"/>
  <path class="cls-1" d="m136.59,98.63h-1.85v-2.74h-1.38v6.85h3.23c.57,0,1.01-.06,1.31-.17.3-.12.57-.34.81-.67.24-.33.35-.72.35-1.19,0-.57-.2-1.06-.59-1.47-.39-.41-1.02-.61-1.89-.61Zm.85,2.61c-.13.15-.28.25-.45.29-.17.04-.47.06-.91.06h-1.35v-1.81h1.41c.54,0,.93.07,1.16.22.23.15.34.38.34.69,0,.22-.07.4-.2.55Z"/>
  <polygon class="cls-1" points="149.42 98.59 146.71 98.59 146.71 95.89 145.33 95.89 145.33 102.74 146.71 102.74 146.71 99.75 149.42 99.75 149.42 102.74 150.8 102.74 150.8 95.89 149.42 95.89 149.42 98.59"/>
  <polygon class="cls-1" points="158.66 100.45 158.66 95.89 157.37 95.89 157.37 102.74 158.75 102.74 161.52 98.27 161.52 102.74 162.81 102.74 162.81 95.89 161.44 95.89 158.66 100.45"/>
  <polygon class="cls-1" points="170.65 100.45 170.65 95.89 169.36 95.89 169.36 102.74 170.74 102.74 173.51 98.27 173.51 102.74 174.8 102.74 174.8 95.89 173.43 95.89 170.65 100.45"/>
  <path class="cls-1" d="m172.09,95.55c.41,0,.75-.12,1.01-.36.26-.24.41-.57.45-1h-.64c-.02.22-.1.39-.23.5-.13.11-.33.17-.58.17s-.45-.06-.58-.17c-.13-.11-.21-.28-.23-.5h-.64c.04.42.19.76.45,1,.26.24.6.36,1.01.36Z"/>
  <polygon class="cls-1" points="194.58 95.89 193.19 95.89 193.19 101.59 190.51 101.59 190.51 95.89 189.13 95.89 189.13 102.74 194 102.74 194 104.23 195.14 104.23 195.14 101.59 194.58 101.59 194.58 95.89"/>
  <polygon class="cls-1" points="202.59 99.72 206.03 99.72 206.03 98.57 202.59 98.57 202.59 97.05 206.29 97.05 206.29 95.89 201.21 95.89 201.21 102.74 206.42 102.74 206.42 101.59 202.59 101.59 202.59 99.72"/>
  <polygon class="cls-1" points="216.8 98.59 214.09 98.59 214.09 95.89 212.71 95.89 212.71 102.74 214.09 102.74 214.09 99.75 216.8 99.75 216.8 102.74 218.18 102.74 218.18 95.89 216.8 95.89 216.8 98.59"/>
  <polygon class="cls-1" points="224.24 97.05 226.27 97.05 226.27 102.74 227.65 102.74 227.65 97.05 229.68 97.05 229.68 95.89 224.24 95.89 224.24 97.05"/>
  <path class="cls-1" d="m239.55,96c-.26-.07-.8-.1-1.64-.1h-2.22v6.85h1.38v-2.58h.9c.63,0,1.1-.03,1.43-.1.24-.05.48-.16.72-.32.23-.16.43-.39.58-.67.15-.29.23-.64.23-1.06,0-.54-.13-.99-.4-1.33-.26-.34-.59-.57-.99-.67Zm-.2,2.55c-.1.15-.25.27-.43.34-.18.07-.55.11-1.09.11h-.76v-1.94h.67c.5,0,.83.02,1,.05.22.04.41.14.56.3.15.16.22.37.22.62,0,.2-.05.38-.16.53Z"/>
</svg>